/* XPM */
static const char *B_16x16_xpm[] = {
/* columns rows colors chars-per-pixel */
"16 16 81 1",
"O c Black",
"W c #000001",
"Q c #940003",
"i c #810003",
"I c #240001",
"S c #480000",
"r c #A30003",
"h c #900002",
"j c #6A0001",
"o c #0D0000",
"l c #A10003",
"Z c #440000",
"b c #7B0002",
"^ c #680002",
"6 c #0B0000",
"7 c #9F0003",
"y c #8C0003",
"Y c #2F0000",
"v c #090000",
"2 c #9D0002",
"H c #9D0003",
"t c #400002",
"X c #1A0001",
"  c #070000",
"M c #9B0003",
"w c #3E0001",
"P c #880002",
", c #2B0000",
". c #180001",
"N c #050000",
"0 c #990003",
"c c #160000",
"% c #970003",
": c #840002",
"& c #840003",
"s c #270000",
"n c #140000",
"L c #5E0001",
"+ c #010000",
"B c #010001",
"! c #950002",
"1 c #6F0003",
"z c #930003",
"@ c #6D0002",
"~ c #910002",
"R c #910003",
"m c #6B0002",
"f c #580003",
"8 c #7C0002",
"e c #0C0000",
"* c #0C0001",
"g c #A00003",
"V c #430002",
"x c #7A0002",
"- c #9E0003",
"G c #8B0003",
"u c #2E0000",
"T c #650002",
"A c #080000",
"9 c #520002",
"4 c #9C0002",
"C c #9C0003",
"E c #3F0001",
"J c #190000",
"a c #190002",
"F c #060000",
"q c #9A0003",
"< c #3D0001",
"> c #2A0000",
"= c #170000",
"p c #170002",
"3 c #980002",
"; c #980003",
"K c #280001",
"k c #720002",
"D c #020001",
"# c #960002",
"$ c #960003",
"U c #260001",
"d c #700003",
"5 c #130000",
/* pixels */
" .X.......oOOOOO",
"O+@#$$%%$$#&*OOO",
"OO=-;:>,<12345OO",
"OO67%8OOOO90qwOO",
"OO67%8OOOOe7r=OO",
"OO67;8OOOOtyuOOO",
"OO67;ipasdfOOOOO",
"OO6g%hjkhl4zxcOO",
"OOv7;bOOOnmM%3NO",
"OOBg;8OOOOOV0CZO",
"OOBg%8OOOOOAhCSO",
"OODl%8OOOOOFGHJO",
"OODl%bOOOOOKCLOO",
"OODg%PIUUYTREOOO",
"OOWCQQ#!~^IOOOOO",
"OOOFee6FOOOOOOOO"
};
